# xmcd
# 
# Track frame offsets:
#     150
#     23134
#     39733
#     47637
#     64528
#     79115
#     97595
#     110065
#     122354
#     133654
# 
# Disc length: 2067
# 
# Revision: 1
# Processed by: cddbd v1.5.2PL0 Copyright (c) Steve Scherf et al.
# Submitted via: BonkEnc v1.0.8
# 
DISCID=7708110a
DTITLE=Gary Burton - Country Roads and Other Places
DYEAR=1969
DGENRE=Contemporary Jazz
TTITLE0=Country Roads
TTITLE1=The Green Mountains
TTITLE2=True or False
TTITLE3=Gone, But Forgotten
TTITLE4=Ravel Prelude - Le Tombeau De Couperin - Prelude
TTITLE5=And On the Third Day
TTITLE6=A Singing Song
TTITLE7=Wichita Breakdown
TTITLE8=My Foolish Heart
TTITLE9=A Family Joy
EXTD=
EXTT0=
EXTT1=
EXTT2=
EXTT3=
EXTT4=
EXTT5=
EXTT6=
EXTT7=
EXTT8=
EXTT9=
PLAYORDER=
